<svg width="32" height="32" viewBox="0 0 32 32" fill="none" xmlns="http://www.w3.org/2000/svg">
<g clip-path="url(#clip0_5_467)">
<path d="M18.6667 10.6667V8.00003C18.6667 7.29279 18.3857 6.61451 17.8856 6.11441C17.3855 5.61432 16.7072 5.33336 16 5.33336H6.66667C5.95942 5.33336 5.28115 5.61432 4.78105 6.11441C4.28095 6.61451 4 7.29279 4 8.00003V24C4 24.7073 4.28095 25.3856 4.78105 25.8856C5.28115 26.3857 5.95942 26.6667 6.66667 26.6667H16C16.7072 26.6667 17.3855 26.3857 17.8856 25.8856C18.3857 25.3856 18.6667 24.7073 18.6667 24V21.3334" stroke="#62618F" stroke-width="2" stroke-linecap="round" stroke-linejoin="round"/>
<path d="M9.33334 16H28M28 16L24 12M28 16L24 20" stroke="#62618F" stroke-width="2" stroke-linecap="round" stroke-linejoin="round"/>
</g>
<defs>
<clipPath id="clip0_5_467">
<rect width="32" height="32" fill="white"/>
</clipPath>
</defs>
</svg>
